<?xml version="1.0" encoding="utf-8"?>
<svg version="1.1" xmlns="http://www.w3.org/2000/svg" viewBox="0 0 128 128" xml:space="preserve">
  <style type="text/css">
    .st0{fill:#FFFFFF;}
    .st1{fill:#146736;}
    .st2{fill:#EE2028;}
  </style>
  <path class="st0" d="M121.5,128H6.5c-3.6,0-6.5-2.9-6.5-6.5V6.5C0,2.9,2.9,0,6.5,0h115.1c3.6,0,6.5,2.9,6.5,6.5v115.1C128,125.1,125.1,128,121.5,128z"/>
  <g>
    <path class="st1" d="M42.5,59.1c0,0-8.8-3.4-13.9-4c-9.5,15.1-17.5,31.1-17.5,31.1s39.6,2,53.2,21.4c0-6.3,0-8.1,0-8.1S49.6,83.4,17.5,82.2c8.1-15.1,12.2-24.9,12.2-24.9L42.5,59.1z"/>
    <path class="st1" d="M19.2,90l-4.9,5.8c0,0,24.2-1.6,46.7,12.7C53.5,100.8,41.3,94.1,19.2,90z"/>
    <path class="st1" d="M86,59.1c0,0,8.8-3.4,13.9-4c9.5,15.1,17.5,31.1,17.5,31.1s-39.6,2-53.2,21.4c0-6.3,0-8.1,0-8.1S78.9,83.4,111,82.2c-8.1-15.1-12.2-24.9-12.2-24.9L86,59.1z"/>
    <path class="st1" d="M109.3,90l4.9,5.8c0,0-24.2-1.6-46.7,12.7C75,100.8,87.1,94.1,109.3,90z"/>
    <g>
      <g>
        <rect x="44.5" y="60" class="st2" width="39.5" height="15.4"/>
        <rect x="56.6" y="47.9" class="st2" width="15.4" height="39.5"/>
      </g>
    </g>
    <g>
      <g>
        <rect x="74.2" y="38.2" class="st2" width="14.1" height="5.5"/>
        <rect x="78.5" y="33.8" class="st2" width="5.5" height="14.1"/>
      </g>
    </g>
    <g>
      <g>
        <rect x="46.2" y="36.5" class="st2" width="8.6" height="3.3"/>
        <rect x="48.8" y="33.8" class="st2" width="3.3" height="8.6"/>
      </g>
    </g>
    <g>
      <g>
        <rect x="59.9" y="21.6" class="st2" width="8.6" height="3.3"/>
        <rect x="62.6" y="19" class="st2" width="3.3" height="8.6"/>
      </g>
    </g>
  </g>
</svg>
